<svg width="720" height="720" viewBox="0 0 720 720" fill="none" xmlns="http://www.w3.org/2000/svg">
<path fill-rule="evenodd" clip-rule="evenodd" d="M389.785 288.364V299.962C389.785 300.917 389.786 301.865 389.787 302.806C389.81 322.419 389.829 339.07 379.768 356.749C371.257 371.812 357.776 381.075 342.713 381.075C322.152 381.075 310.177 365.41 310.177 342.289C310.177 296.649 351.073 288.364 389.785 288.364ZM431.133 431.762C435.125 433.87 440.246 433.644 443.786 430.481L443.936 430.632C454.631 421.142 474.062 404.197 484.983 395.084C489.351 391.469 488.598 385.669 485.134 380.849C484.084 379.396 483.028 377.972 481.978 376.558C473.234 364.774 464.949 353.609 464.949 331.218V247.77C464.949 244.919 464.965 242.087 464.982 239.277C465.165 207.261 465.332 178.024 441.376 155.661C420.815 135.929 386.772 129 360.713 129C309.8 129 252.938 147.979 240.962 210.941C239.757 217.644 244.578 221.184 248.946 222.163L300.913 227.736C305.733 227.51 309.273 222.766 310.177 217.946C314.621 196.255 332.847 185.787 353.257 185.787C364.253 185.787 376.755 189.854 383.308 199.72C389.999 209.587 389.897 222.73 389.806 234.521C389.795 235.869 389.785 237.2 389.785 238.506V245.435C384.772 246.007 379.509 246.546 374.085 247.1C345.938 249.98 313.463 253.303 289.089 264.038C255.574 278.498 232 308.096 232 351.552C232 407.209 267.097 435 312.135 435C350.245 435 371.031 426.038 400.404 396.063C401.954 398.292 403.338 400.34 404.64 402.267C411.563 412.514 416.172 419.337 431.133 431.762ZM672.807 469.378C663.157 457.003 609.029 463.423 584.282 466.359L583.861 466.409C576.383 467.322 575.241 460.814 581.977 456.133C625.537 425.476 697.013 434.324 705.348 444.601C713.683 454.934 703.179 526.582 662.246 560.778C655.966 566.03 649.971 563.233 652.769 556.268L652.785 556.227C661.985 533.257 682.564 481.873 672.807 469.378ZM641.122 505.63C564.908 561.806 454.439 591.778 359.327 591.778C225.966 591.778 105.906 542.452 15.0763 460.414C7.94008 453.963 14.3341 445.172 22.8976 450.195C120.921 507.228 242.122 541.539 367.32 541.539C451.756 541.539 544.641 524.07 630.047 487.818C642.949 482.337 653.739 496.267 641.122 505.63Z" fill="white"/>
</svg>
