<svg width="1080" height="1080" viewBox="0 0 1080 1080" fill="none" xmlns="http://www.w3.org/2000/svg">
<g clip-path="url(#clip0_160_65)">
<rect x="40" y="40" width="1000" height="1000" rx="250" fill="white"/>
<path d="M655.012 904H537.012V460H380.012V378C473.012 376 537.012 324 551.012 256H655.012L655.012 904Z" fill="#92E6A7"/>
<path d="M655.012 904V914H665.012V904H655.012ZM537.012 904H527.012V914H537.012V904ZM537.012 460H547.012V450H537.012V460ZM380.012 460H370.012V470H380.012V460ZM380.012 378L379.797 368.002L370.012 368.213V378H380.012ZM551.012 256V246H542.861L541.217 253.984L551.012 256ZM655.012 256H665.012V246H655.012V256ZM655.012 894H537.012V914H655.012V894ZM547.012 904V460H527.012V904H547.012ZM537.012 450H380.012V470H537.012V450ZM390.012 460V378H370.012V460H390.012ZM380.227 387.998C476.879 385.919 545.676 331.508 560.806 258.017L541.217 253.984C528.348 316.493 469.144 366.081 379.797 368.002L380.227 387.998ZM551.012 266H655.012V246H551.012V266ZM645.012 256L645.012 904H665.012L665.012 256H645.012Z" fill="black"/>
</g>
<defs>
<clipPath id="clip0_160_65">
<rect width="1080" height="1080" fill="white"/>
</clipPath>
</defs>
</svg>
