<svg width="1088" height="1088" viewBox="0 0 1088 1088" fill="none" xmlns="http://www.w3.org/2000/svg">
<g clip-path="url(#clip0_160_67)" filter="url(#filter0_d_160_67)">
<rect x="44" y="40" width="1000" height="1000" rx="250" fill="white"/>
<path d="M284.043 762V632L560.043 256H714.043L714.043 656H823.043V762H714.043V904H596.043V762H284.043ZM596.043 656V377L392.043 656H596.043Z" fill="#2DC653"/>
<path d="M284.043 762H274.043V772H284.043V762ZM284.043 632L275.981 626.083L274.043 628.724V632H284.043ZM560.043 256V246H554.978L551.981 250.083L560.043 256ZM714.043 256H724.043V246H714.043V256ZM714.043 656H704.043V666H714.043V656ZM823.043 656H833.043V646H823.043V656ZM823.043 762V772H833.043V762H823.043ZM714.043 762V752H704.043V762H714.043ZM714.043 904V914H724.043V904H714.043ZM596.043 904H586.043V914H596.043V904ZM596.043 762H606.043V752H596.043V762ZM596.043 656V666H606.043V656H596.043ZM596.043 377H606.043V346.381L587.97 371.098L596.043 377ZM392.043 656L383.97 650.098L372.343 666H392.043V656ZM294.043 762V632H274.043V762H294.043ZM292.104 637.917L568.104 261.918L551.981 250.083L275.981 626.083L292.104 637.917ZM560.043 266H714.043V246H560.043V266ZM704.043 256L704.043 656H724.043L724.043 256H704.043ZM714.043 666H823.043V646H714.043V666ZM813.043 656V762H833.043V656H813.043ZM823.043 752H714.043V772H823.043V752ZM704.043 762V904H724.043V762H704.043ZM714.043 894H596.043V914H714.043V894ZM606.043 904V762H586.043V904H606.043ZM596.043 752H284.043V772H596.043V752ZM606.043 656V377H586.043V656H606.043ZM587.97 371.098L383.97 650.098L400.115 661.902L604.115 382.903L587.97 371.098ZM392.043 666H596.043V646H392.043V666Z" fill="black"/>
</g>
<defs>
<filter id="filter0_d_160_67" x="0" y="0" width="1088" height="1088" filterUnits="userSpaceOnUse" color-interpolation-filters="sRGB">
<feFlood flood-opacity="0" result="BackgroundImageFix"/>
<feColorMatrix in="SourceAlpha" type="matrix" values="0 0 0 0 0 0 0 0 0 0 0 0 0 0 0 0 0 0 127 0" result="hardAlpha"/>
<feOffset dy="4"/>
<feGaussianBlur stdDeviation="2"/>
<feComposite in2="hardAlpha" operator="out"/>
<feColorMatrix type="matrix" values="0 0 0 0 0 0 0 0 0 0 0 0 0 0 0 0 0 0 0.25 0"/>
<feBlend mode="normal" in2="BackgroundImageFix" result="effect1_dropShadow_160_67"/>
<feBlend mode="normal" in="SourceGraphic" in2="effect1_dropShadow_160_67" result="shape"/>
</filter>
<clipPath id="clip0_160_67">
<rect width="1080" height="1080" fill="white" transform="translate(4)"/>
</clipPath>
</defs>
</svg>
