<svg width="1088" height="1088" viewBox="0 0 1088 1088" fill="none" xmlns="http://www.w3.org/2000/svg">
<g clip-path="url(#clip0_160_73)" filter="url(#filter0_d_160_73)">
<rect x="44" y="40" width="1000" height="1000" rx="250" fill="white"/>
<path d="M786.429 256V361C732.429 406 549.429 570 520.429 904H396.429C424.429 542 650.429 361 650.429 361H302.429V256H786.429Z" fill="#1A7431"/>
<path d="M786.429 256H796.429V246H786.429V256ZM786.429 361L792.831 368.682L796.429 365.684V361H786.429ZM520.429 904V914H529.599L530.392 904.865L520.429 904ZM396.429 904L386.459 903.229L385.626 914H396.429V904ZM650.429 361L656.68 368.805L678.912 351H650.429V361ZM302.429 361H292.429V371H302.429V361ZM302.429 256V246H292.429V256H302.429ZM776.429 256V361H796.429V256H776.429ZM780.027 353.318C725.01 399.165 539.792 565.388 510.467 903.135L530.392 904.865C559.066 574.612 739.848 412.835 792.831 368.682L780.027 353.318ZM520.429 894H396.429V914H520.429V894ZM406.399 904.771C420.245 725.774 483.021 591.634 542.264 502.276C571.892 457.587 600.631 424.108 621.908 401.847C632.545 390.718 641.311 382.399 647.383 376.89C650.419 374.136 652.78 372.085 654.364 370.738C655.156 370.064 655.754 369.566 656.144 369.244C656.339 369.083 656.483 368.966 656.573 368.893C656.618 368.856 656.649 368.83 656.667 368.816C656.676 368.809 656.682 368.804 656.684 368.802C656.685 368.801 656.684 368.802 656.685 368.802C656.683 368.803 656.68 368.805 650.429 361C644.178 353.195 644.174 353.198 644.168 353.202C644.166 353.205 644.159 353.21 644.154 353.214C644.142 353.223 644.127 353.235 644.109 353.25C644.072 353.28 644.022 353.321 643.958 353.373C643.83 353.476 643.649 353.624 643.416 353.817C642.949 354.202 642.274 354.764 641.404 355.505C639.664 356.985 637.143 359.176 633.944 362.078C627.547 367.882 618.438 376.532 607.45 388.028C585.477 411.017 555.966 445.413 525.595 491.224C464.838 582.866 400.614 720.226 386.459 903.229L406.399 904.771ZM650.429 351H302.429V371H650.429V351ZM312.429 361V256H292.429V361H312.429ZM302.429 266H786.429V246H302.429V266Z" fill="black"/>
</g>
<defs>
<filter id="filter0_d_160_73" x="0" y="0" width="1088" height="1088" filterUnits="userSpaceOnUse" color-interpolation-filters="sRGB">
<feFlood flood-opacity="0" result="BackgroundImageFix"/>
<feColorMatrix in="SourceAlpha" type="matrix" values="0 0 0 0 0 0 0 0 0 0 0 0 0 0 0 0 0 0 127 0" result="hardAlpha"/>
<feOffset dy="4"/>
<feGaussianBlur stdDeviation="2"/>
<feComposite in2="hardAlpha" operator="out"/>
<feColorMatrix type="matrix" values="0 0 0 0 0 0 0 0 0 0 0 0 0 0 0 0 0 0 0.25 0"/>
<feBlend mode="normal" in2="BackgroundImageFix" result="effect1_dropShadow_160_73"/>
<feBlend mode="normal" in="SourceGraphic" in2="effect1_dropShadow_160_73" result="shape"/>
</filter>
<clipPath id="clip0_160_73">
<rect width="1080" height="1080" fill="white" transform="translate(4)"/>
</clipPath>
</defs>
</svg>
