<svg width="1088" height="1088" viewBox="0 0 1088 1088" fill="none" xmlns="http://www.w3.org/2000/svg">
<g clip-path="url(#clip0_160_71)" filter="url(#filter0_d_160_71)">
<rect x="44" y="40" width="1000" height="1000" rx="250" fill="white"/>
<path d="M785.473 273L751.473 371C727.473 358 693.473 345 640.473 345C518.473 345 430.473 426 419.473 552C453.473 500 515.473 475 584.473 475C713.473 475 804.473 561 804.473 694C804.473 829 694.473 919 558.473 919C393.473 919 299.473 784 299.473 618C299.473 383 446.473 241 647.473 241C707.473 241 757.473 255 785.473 273ZM432.473 696C432.473 770 492.473 817 558.473 817C626.473 817 684.473 771 684.473 696C684.473 620 626.473 575 558.473 575C490.473 575 432.473 620 432.473 696Z" fill="#208B3A"/>
<path d="M785.473 273L794.92 276.278L797.499 268.844L790.88 264.588L785.473 273ZM751.473 371L746.71 379.793L757.061 385.4L760.92 374.278L751.473 371ZM419.473 552L409.511 551.13L427.842 557.473L419.473 552ZM776.025 269.722L742.025 367.722L760.92 374.278L794.92 276.278L776.025 269.722ZM756.235 362.207C730.954 348.513 695.33 335 640.473 335V355C691.615 355 723.991 367.487 746.71 379.793L756.235 362.207ZM640.473 335C577.196 335 522.184 356.044 481.53 393.935C440.885 431.817 415.199 485.97 409.511 551.13L429.435 552.87C434.746 492.03 458.561 442.683 495.166 408.565C531.762 374.457 581.749 355 640.473 355V335ZM427.842 557.473C459.427 509.167 517.658 485 584.473 485V465C513.287 465 447.518 490.834 411.103 546.528L427.842 557.473ZM584.473 485C646.718 485 699.085 505.713 735.846 541.765C772.58 577.79 794.473 629.856 794.473 694H814.473C814.473 625.144 790.865 567.71 749.849 527.485C708.861 487.287 651.228 465 584.473 465V485ZM794.473 694C794.473 822.362 690.135 909 558.473 909V929C698.81 929 814.473 835.638 814.473 694H794.473ZM558.473 909C478.982 909 417.091 876.606 374.87 824.458C332.473 772.092 309.473 699.211 309.473 618H289.473C289.473 702.789 313.472 780.408 359.326 837.043C405.355 893.894 472.964 929 558.473 929V909ZM309.473 618C309.473 502.61 345.527 410.983 405.334 348.277C465.12 285.592 549.4 251 647.473 251V231C544.545 231 454.825 267.408 390.861 334.473C326.918 401.517 289.473 498.39 289.473 618H309.473ZM647.473 251C706.239 251 754.17 264.765 780.065 281.412L790.88 264.588C760.775 245.235 708.706 231 647.473 231V251ZM422.473 696C422.473 776.456 487.932 827 558.473 827V807C497.014 807 442.473 763.544 442.473 696H422.473ZM558.473 827C631.061 827 694.473 777.413 694.473 696H674.473C674.473 764.587 621.884 807 558.473 807V827ZM694.473 696C694.473 655.275 678.85 622.291 653.671 599.575C628.616 576.971 594.638 565 558.473 565V585C590.307 585 619.329 595.529 640.274 614.425C661.095 633.209 674.473 660.725 674.473 696H694.473ZM558.473 565C522.307 565 488.329 576.971 463.274 599.575C438.095 622.291 422.473 655.275 422.473 696H442.473C442.473 660.725 455.85 633.209 476.671 614.425C497.616 595.529 526.638 585 558.473 585V565Z" fill="black"/>
</g>
<defs>
<filter id="filter0_d_160_71" x="0" y="0" width="1088" height="1088" filterUnits="userSpaceOnUse" color-interpolation-filters="sRGB">
<feFlood flood-opacity="0" result="BackgroundImageFix"/>
<feColorMatrix in="SourceAlpha" type="matrix" values="0 0 0 0 0 0 0 0 0 0 0 0 0 0 0 0 0 0 127 0" result="hardAlpha"/>
<feOffset dy="4"/>
<feGaussianBlur stdDeviation="2"/>
<feComposite in2="hardAlpha" operator="out"/>
<feColorMatrix type="matrix" values="0 0 0 0 0 0 0 0 0 0 0 0 0 0 0 0 0 0 0.25 0"/>
<feBlend mode="normal" in2="BackgroundImageFix" result="effect1_dropShadow_160_71"/>
<feBlend mode="normal" in="SourceGraphic" in2="effect1_dropShadow_160_71" result="shape"/>
</filter>
<clipPath id="clip0_160_71">
<rect width="1080" height="1080" fill="white" transform="translate(4)"/>
</clipPath>
</defs>
</svg>
