<svg width="1088" height="1088" viewBox="0 0 1088 1088" fill="none" xmlns="http://www.w3.org/2000/svg">
<g clip-path="url(#clip0_160_69)" filter="url(#filter0_d_160_69)">
<rect x="44" y="40" width="1000" height="1000" rx="250" fill="white"/>
<path d="M301.111 725L414.111 696C419.111 765 470.111 817 545.111 817C613.111 817 668.111 771 668.111 699C668.111 619 609.111 579 543.111 579C497.111 579 458.111 598 435.111 624L322.111 583L402.111 256H757.111V361H483.111L443.111 525C471.111 496 521.111 480 567.111 480C696.111 480 789.111 560 789.111 696C789.111 818 695.111 920 545.111 920C405.111 920 309.111 827 301.111 725Z" fill="#25A244"/>
<path d="M301.111 725L298.625 715.314L290.484 717.403L291.141 725.782L301.111 725ZM414.111 696L424.084 695.277L423.219 683.338L411.625 686.314L414.111 696ZM435.111 624L431.7 633.4L438.094 635.72L442.601 630.626L435.111 624ZM322.111 583L312.397 580.624L310.265 589.34L318.7 592.4L322.111 583ZM402.111 256V246H394.262L392.397 253.624L402.111 256ZM757.111 256H767.111V246H757.111V256ZM757.111 361V371H767.111V361H757.111ZM483.111 361V351H475.256L473.395 358.63L483.111 361ZM443.111 525L433.395 522.63L424.64 558.527L450.305 531.946L443.111 525ZM303.596 734.686L416.596 705.686L411.625 686.314L298.625 715.314L303.596 734.686ZM404.137 696.723C409.501 770.754 464.672 827 545.111 827V807C475.549 807 428.72 759.246 424.084 695.277L404.137 696.723ZM545.111 827C617.846 827 678.111 777.278 678.111 699H658.111C658.111 764.722 608.375 807 545.111 807V827ZM678.111 699C678.111 656.331 662.271 623.496 636.922 601.454C611.77 579.583 578.042 569 543.111 569V589C574.179 589 602.951 598.417 623.799 616.546C644.45 634.504 658.111 661.669 658.111 699H678.111ZM543.111 569C494.433 569 452.64 589.092 427.621 617.374L442.601 630.626C463.582 606.908 499.788 589 543.111 589V569ZM438.521 614.6L325.521 573.6L318.7 592.4L431.7 633.4L438.521 614.6ZM331.824 585.376L411.824 258.376L392.397 253.624L312.397 580.624L331.824 585.376ZM402.111 266H757.111V246H402.111V266ZM747.111 256V361H767.111V256H747.111ZM757.111 351H483.111V371H757.111V351ZM473.395 358.63L433.395 522.63L452.826 527.37L492.826 363.37L473.395 358.63ZM450.305 531.946C475.823 505.516 522.823 490 567.111 490V470C519.399 470 466.398 486.484 435.917 518.054L450.305 531.946ZM567.111 490C629.56 490 682.448 509.341 719.638 544.287C756.744 579.156 779.111 630.386 779.111 696H799.111C799.111 625.614 774.977 568.844 733.333 529.713C691.773 490.659 633.661 470 567.111 470V490ZM779.111 696C779.111 812.139 689.932 910 545.111 910V930C700.29 930 799.111 823.86 799.111 696H779.111ZM545.111 910C409.522 910 318.612 820.246 311.08 724.218L291.141 725.782C299.61 833.754 400.699 930 545.111 930V910Z" fill="black"/>
</g>
<defs>
<filter id="filter0_d_160_69" x="0" y="0" width="1088" height="1088" filterUnits="userSpaceOnUse" color-interpolation-filters="sRGB">
<feFlood flood-opacity="0" result="BackgroundImageFix"/>
<feColorMatrix in="SourceAlpha" type="matrix" values="0 0 0 0 0 0 0 0 0 0 0 0 0 0 0 0 0 0 127 0" result="hardAlpha"/>
<feOffset dy="4"/>
<feGaussianBlur stdDeviation="2"/>
<feComposite in2="hardAlpha" operator="out"/>
<feColorMatrix type="matrix" values="0 0 0 0 0 0 0 0 0 0 0 0 0 0 0 0 0 0 0.25 0"/>
<feBlend mode="normal" in2="BackgroundImageFix" result="effect1_dropShadow_160_69"/>
<feBlend mode="normal" in="SourceGraphic" in2="effect1_dropShadow_160_69" result="shape"/>
</filter>
<clipPath id="clip0_160_69">
<rect width="1080" height="1080" fill="white" transform="translate(4)"/>
</clipPath>
</defs>
</svg>
