<svg width="1080" height="1080" viewBox="0 0 1080 1080" fill="none" xmlns="http://www.w3.org/2000/svg">
<g clip-path="url(#clip0_160_61)">
<rect x="40" y="40" width="1000" height="1000" rx="250" fill="white"/>
<path d="M429.445 499L313.445 491C312.445 482 310.445 467 310.445 454C310.445 342 394.445 241 541.445 241C684.445 241 769.445 334 769.445 445C769.445 529 722.445 598 644.445 646L518.445 724C487.445 743 461.445 766 452.445 798H773.445V904H304.445C306.445 793 345.445 706 458.445 636L565.445 569C623.445 533 648.445 494 648.445 447C648.445 394 612.445 346 539.445 346C463.445 346 426.445 399 426.445 466C426.445 476 428.445 488 429.445 499Z" fill="#6EDE8A"/>
<path d="M429.445 499L428.757 508.977L440.467 509.784L439.404 498.095L429.445 499ZM313.445 491L303.506 492.105L304.428 500.402L312.757 500.977L313.445 491ZM644.445 646L639.204 637.484L639.193 637.491L639.182 637.498L644.445 646ZM518.445 724L523.671 732.526L523.69 732.515L523.709 732.503L518.445 724ZM452.445 798L442.819 795.293L439.245 808H452.445V798ZM773.445 798H783.445V788H773.445V798ZM773.445 904V914H783.445V904H773.445ZM304.445 904L294.447 903.82L294.263 914H304.445V904ZM458.445 636L463.711 644.501L463.732 644.489L463.752 644.476L458.445 636ZM565.445 569L560.172 560.504L560.155 560.514L560.138 560.525L565.445 569ZM430.133 489.024L314.133 481.024L312.757 500.977L428.757 508.977L430.133 489.024ZM323.384 489.896C322.343 480.528 320.445 466.288 320.445 454H300.445C300.445 467.712 302.547 483.472 303.506 492.105L323.384 489.896ZM320.445 454C320.445 347.553 399.938 251 541.445 251V231C388.952 231 300.445 336.447 300.445 454H320.445ZM541.445 251C610.726 251 665.155 273.49 702.187 308.629C739.231 343.78 759.445 392.116 759.445 445H779.445C779.445 386.885 757.159 333.22 715.953 294.121C674.736 255.011 615.164 231 541.445 231V251ZM759.445 445C759.445 524.693 715.035 590.819 639.204 637.484L649.686 654.517C729.856 605.182 779.445 533.307 779.445 445H759.445ZM639.182 637.498L513.182 715.498L523.709 732.503L649.709 654.503L639.182 637.498ZM513.22 715.474C481.623 734.84 452.87 759.554 442.819 795.293L462.072 800.708C470.02 772.447 493.268 751.16 523.671 732.526L513.22 715.474ZM452.445 808H773.445V788H452.445V808ZM763.445 798V904H783.445V798H763.445ZM773.445 894H304.445V914H773.445V894ZM314.444 904.18C315.423 849.812 325.447 801.999 348.606 759.402C371.748 716.834 408.389 678.771 463.711 644.501L453.179 627.499C395.501 663.229 356.142 703.666 331.035 749.849C305.943 796.002 295.467 847.188 294.447 903.82L314.444 904.18ZM463.752 644.476L570.752 577.476L560.138 560.525L453.138 627.525L463.752 644.476ZM570.719 577.497C630.5 540.391 658.445 498.632 658.445 447H638.445C638.445 489.368 616.391 525.609 560.172 560.504L570.719 577.497ZM658.445 447C658.445 418.261 648.669 390.39 628.487 369.651C608.214 348.819 578.239 336 539.445 336V356C573.651 356 598.176 367.181 614.154 383.599C630.221 400.111 638.445 422.739 638.445 447H658.445ZM539.445 336C498.944 336 467.785 350.225 446.89 374.324C426.175 398.215 416.445 430.76 416.445 466H436.445C436.445 434.24 445.215 406.786 462.001 387.426C478.605 368.276 503.946 356 539.445 356V336ZM416.445 466C416.445 476.546 418.595 490.097 419.486 499.906L439.404 498.095C438.296 485.903 436.445 475.454 436.445 466H416.445Z" fill="black"/>
</g>
<defs>
<clipPath id="clip0_160_61">
<rect width="1080" height="1080" fill="white"/>
</clipPath>
</defs>
</svg>
