<svg width="1088" height="1088" viewBox="0 0 1088 1088" fill="none" xmlns="http://www.w3.org/2000/svg">
<g clip-path="url(#clip0_160_63)" filter="url(#filter0_d_160_63)">
<rect x="44" y="40" width="1000" height="1000" rx="250" fill="white"/>
<path d="M488.109 610L433.109 521L612.109 361H317.109V256H767.109V356L591.109 510C688.109 512 785.109 582 785.109 707C785.109 818 696.109 919 542.109 919C392.109 919 303.109 822 295.109 714L412.109 690C415.109 765 469.109 816 541.109 816C620.109 816 664.109 765 664.109 706C664.109 631 604.109 599 549.109 599C518.109 599 498.109 605 488.109 610Z" fill="#4AD66D"/>
<path d="M488.109 610L479.602 615.257L484.407 623.032L492.581 618.944L488.109 610ZM433.109 521L426.445 513.544L420.197 519.129L424.602 526.257L433.109 521ZM612.109 361L618.773 368.456L638.302 351H612.109V361ZM317.109 361H307.109V371H317.109V361ZM317.109 256V246H307.109V256H317.109ZM767.109 256H777.109V246H767.109V256ZM767.109 356L773.694 363.526L777.109 360.538V356H767.109ZM591.109 510L584.524 502.474L565.105 519.466L590.903 519.998L591.109 510ZM295.109 714L293.1 704.204L284.487 705.971L285.136 714.739L295.109 714ZM412.109 690L422.101 689.6L421.631 677.839L410.1 680.204L412.109 690ZM496.616 604.743L441.616 515.743L424.602 526.257L479.602 615.257L496.616 604.743ZM439.773 528.456L618.773 368.456L605.445 353.544L426.445 513.544L439.773 528.456ZM612.109 351H317.109V371H612.109V351ZM327.109 361V256H307.109V361H327.109ZM317.109 266H767.109V246H317.109V266ZM757.109 256V356H777.109V256H757.109ZM760.524 348.474L584.524 502.474L597.694 517.526L773.694 363.526L760.524 348.474ZM590.903 519.998C683.483 521.907 775.109 588.41 775.109 707H795.109C795.109 575.59 692.735 502.093 591.315 500.002L590.903 519.998ZM775.109 707C775.109 811.93 691.15 909 542.109 909V929C701.068 929 795.109 824.07 795.109 707H775.109ZM542.109 909C397.047 909 312.673 815.747 305.082 713.261L285.136 714.739C293.545 828.253 387.171 929 542.109 929V909ZM297.118 723.796L414.118 699.796L410.1 680.204L293.1 704.204L297.118 723.796ZM402.117 690.4C405.329 770.701 463.68 826 541.109 826V806C474.538 806 424.889 759.299 422.101 689.6L402.117 690.4ZM541.109 826C582.822 826 616.182 812.491 639.175 790.324C662.137 768.186 674.109 738.026 674.109 706H654.109C654.109 732.974 644.081 757.814 625.293 775.926C606.536 794.009 578.396 806 541.109 806V826ZM674.109 706C674.109 665.5 657.756 635.847 633.454 616.545C609.463 597.489 578.381 589 549.109 589V609C574.837 609 601.255 616.511 621.014 632.205C640.462 647.653 654.109 671.5 654.109 706H674.109ZM549.109 589C516.916 589 495.315 595.217 483.637 601.056L492.581 618.944C500.903 614.783 519.302 609 549.109 609V589Z" fill="black"/>
</g>
<defs>
<filter id="filter0_d_160_63" x="0" y="0" width="1088" height="1088" filterUnits="userSpaceOnUse" color-interpolation-filters="sRGB">
<feFlood flood-opacity="0" result="BackgroundImageFix"/>
<feColorMatrix in="SourceAlpha" type="matrix" values="0 0 0 0 0 0 0 0 0 0 0 0 0 0 0 0 0 0 127 0" result="hardAlpha"/>
<feOffset dy="4"/>
<feGaussianBlur stdDeviation="2"/>
<feComposite in2="hardAlpha" operator="out"/>
<feColorMatrix type="matrix" values="0 0 0 0 0 0 0 0 0 0 0 0 0 0 0 0 0 0 0.25 0"/>
<feBlend mode="normal" in2="BackgroundImageFix" result="effect1_dropShadow_160_63"/>
<feBlend mode="normal" in="SourceGraphic" in2="effect1_dropShadow_160_63" result="shape"/>
</filter>
<clipPath id="clip0_160_63">
<rect width="1080" height="1080" fill="white" transform="translate(4)"/>
</clipPath>
</defs>
</svg>
